<svg width="57.504" height="51.456" version="1.1" viewBox="0 0 15.215 13.614" xml:space="preserve" xmlns="http://www.w3.org/2000/svg"><path d="m3.0427 13.635c-0.050729-0.02074-0.11918-0.07361-0.15211-0.11749-0.03293-0.04389-0.067819-0.1049-0.077514-0.13559-0.00974-0.03069-0.058969-1.01-0.10947-2.1762l-0.091836-2.1204-1.2282-1.7319c-0.67549-0.95252-1.2498-1.7711-1.2762-1.8191-0.026434-0.047998-0.04807-0.1268-0.04807-0.17512 0-0.04832 0.021007-0.12941 0.046677-0.1802 0.025679-0.050797 0.071062-0.11308 0.10086-0.1384 0.029804-0.025326 1.0174-0.38122 2.1946-0.79089l2.1404-0.74485 1.4158-1.6811c0.85652-1.017 1.4496-1.6975 1.5015-1.7227 0.047153-0.022898 0.14056-0.041631 0.20756-0.041631 0.067001 0 0.1604 0.018741 0.20756 0.041631 0.051871 0.02519 0.64458 0.7052 1.5004 1.7214l1.4147 1.6798 2.1398 0.74474c1.1769 0.40961 2.1649 0.76608 2.1957 0.79217 0.0307 0.026089 0.07683 0.088993 0.1025 0.13979 0.02567 0.050797 0.04668 0.13189 0.04668 0.1802 0 0.04832-0.02162 0.12712-0.04807 0.17512-0.02643 0.047998-0.60081 0.86661-1.2764 1.8191l-1.2283 1.7319-0.09228 2.1344c-0.08097 1.8726-0.0987 2.1462-0.1446 2.2305-0.02878 0.05284-0.08664 0.12014-0.1286 0.14955-0.04196 0.02942-0.13464 0.05937-0.20597 0.06657-0.10409 0.0105-0.46395-0.07503-1.8235-0.43345-0.9316-0.2456-1.9098-0.50367-2.1739-0.57349l-0.48004-0.12694-2.1725 0.57128c-1.1949 0.3142-2.2158 0.57078-2.2687 0.57018-0.052895-6e-4 -0.13768-0.01806-0.1884-0.03879zm1.6904-4.4904c0.052589-0.021037 0.12489-0.068127 0.16067-0.10463 0.035769-0.036499 0.078906-0.12287 0.095848-0.19192 0.01841-0.075066 0.031088-0.5699 0.031528-1.2306l7.26e-4 -1.105 0.19232-0.01686c0.10577-0.00926 0.2334-0.036807 0.28362-0.061193 0.050209-0.024377 0.1174-0.084522 0.14931-0.13365 0.037117-0.057157 0.057998-0.13957 0.057998-0.22883 0-0.089256-0.020899-0.17168-0.057998-0.22883-0.031905-0.049124-0.09805-0.10876-0.14699-0.13253-0.074153-0.036011-0.22839-0.043207-0.92545-0.043207-0.7066 0-0.85208 0.00692-0.93706 0.044823-0.055329 0.02465-0.12755 0.085769-0.1605 0.13582-0.038707 0.058813-0.059858 0.13919-0.059795 0.22721 5.94e-5 0.085838 0.021564 0.16925 0.058115 0.22553 0.031906 0.049124 0.099718 0.10957 0.1507 0.13433 0.050981 0.024747 0.18529 0.052292 0.29848 0.061208l0.20578 0.016201v2.3831l0.067459 0.094799c0.037099 0.052144 0.11399 0.11675 0.17087 0.14359 0.056884 0.026826 0.14062 0.0488 0.18609 0.048829 0.045473 2.42e-5 0.1257-0.017172 0.1783-0.038209zm3.1479-0.045467c0.093395-0.027116 0.22757-0.081096 0.29818-0.11994 0.070613-0.038847 0.19031-0.1328 0.26601-0.20879 0.07569-0.075974 0.17235-0.20248 0.21478-0.28111 0.042436-0.078632 0.09819-0.22782 0.1239-0.33154 0.037611-0.15174 0.044323-0.31392 0.034377-0.83029-0.010809-0.5613-0.020046-0.66132-0.073749-0.79813-0.033766-0.086032-0.097456-0.21005-0.14153-0.27561-0.04408-0.06555-0.14009-0.1739-0.21337-0.24077-0.073282-0.066861-0.21578-0.15811-0.31667-0.20275-0.10089-0.044646-0.2543-0.095042-0.34091-0.112-0.086606-0.016956-0.22302-0.030834-0.30313-0.030834-0.080111 0-0.21652 0.013877-0.30313 0.030833-0.086607 0.016957-0.2418 0.068163-0.34487 0.11378-0.11009 0.04873-0.25317 0.1447-0.34685 0.23266-0.093678 0.08796-0.1959 0.22229-0.2478 0.32566-0.048591 0.096765-0.10312 0.24248-0.12118 0.3238-0.018059 0.081318-0.03284 0.4029-0.03284 0.71463 0 0.31173 0.013648 0.63436 0.030333 0.71695 0.016676 0.082594 0.069311 0.22836 0.11693 0.32392 0.047629 0.095572 0.15053 0.23792 0.22866 0.31635 0.078134 0.078419 0.19645 0.17252 0.26292 0.2091 0.066471 0.036576 0.1806 0.086923 0.25361 0.11188 0.073012 0.024961 0.19961 0.055613 0.28133 0.068108 0.081719 0.012505 0.22881 0.016128 0.32688 0.00812 0.098063-0.00812 0.25471-0.036857 0.3481-0.063982zm-0.68971-0.81425c-0.08666-0.041904-0.15727-0.10382-0.20097-0.1762-0.065069-0.10778-0.067109-0.13233-0.059562-0.71648 0.00728-0.56374 0.012049-0.61022 0.069984-0.68356 0.034188-0.043279 0.10637-0.10694 0.1604-0.14147 0.071942-0.045973 0.14121-0.062777 0.25876-0.062777 0.088287 0 0.19928 0.018822 0.24666 0.041824 0.047378 0.023002 0.1236 0.087902 0.16939 0.14422l0.083255 0.1024 0.00916 0.57286c0.00772 0.48136 0.00126 0.59226-0.040226 0.69431-0.033514 0.082379-0.086885 0.14474-0.16592 0.19385-0.070172 0.043593-0.17238 0.077024-0.25694 0.084016-0.10598 0.00876-0.17319-0.00418-0.27402-0.052984zm2.8853 0.81228c0.04789-0.032015 0.10692-0.094267 0.13119-0.13833 0.03084-0.05601 0.04413-0.16872 0.04413-0.37446v-0.29434l0.15601-2.244e-4c0.08581-1.109e-4 0.24293-0.012937 0.34916-0.028486 0.10624-0.015557 0.28852-0.07191 0.40508-0.12524 0.15149-0.069305 0.26242-0.14764 0.38898-0.27466 0.12473-0.12519 0.20146-0.23446 0.25965-0.36979 0.05914-0.13753 0.08685-0.25945 0.09757-0.42924 0.01052-0.1666 8.21e-4 -0.2889-0.03253-0.41111-0.02613-0.095674-0.0801-0.23435-0.11994-0.30817-0.03985-0.073815-0.13294-0.19739-0.20689-0.27462-0.07395-0.077216-0.21326-0.17985-0.3096-0.22805-0.09633-0.048216-0.25376-0.10687-0.34984-0.13037-0.12382-0.030271-0.32228-0.042709-0.68151-0.042709-0.43755 0-0.52097 0.00707-0.61036 0.051979-0.056947 0.02859-0.13029 0.094506-0.16297 0.14648-0.056893 0.090464-0.059822 0.15288-0.068529 1.4616-0.00494 0.75192-8.537e-4 1.4204 0.00925 1.4856 0.010422 0.067316 0.052194 0.15623 0.096774 0.20598 0.043146 0.048143 0.11922 0.10489 0.16907 0.1261 0.054657 0.02326 0.14175 0.032952 0.21945 0.02441 0.070854-0.00783 0.168-0.040355 0.21589-0.07237zm0.17532-2.1185v-0.47431h0.2114c0.16026 0 0.23848 0.014295 0.32337 0.059094 0.06159 0.032506 0.14182 0.10894 0.17829 0.16988 0.05377 0.089821 0.06391 0.14207 0.05358 0.27609-0.0082 0.10561-0.03413 0.19288-0.07198 0.24166-0.03259 0.042001-0.11813 0.1046-0.1901 0.13913-0.09467 0.045418-0.18251 0.062777-0.31771 0.062777h-0.18686z" style="fill:#407bff"/></svg>
